<?xml version="1.0" encoding="UTF-8"?>
<!DOCTYPE svg PUBLIC "-//W3C//DTD SVG 1.1//EN" "http://www.w3.org/Graphics/SVG/1.1/DTD/svg11.dtd">
<svg width="160mm" height="90mm" viewBox="0 0 16000 9000" version="1.1" xmlns="http://www.w3.org/2000/svg" stroke-width="28.222" stroke-linejoin="round" xml:space="preserve">
 <path fill="rgb(255,255,255)" stroke="none" d="M 7998,8988 L 0,8988 0,23 15996,23 15996,8988 7998,8988 Z"/>
 <path fill="none" stroke="rgb(179,179,179)" stroke-linejoin="round" d="M 8790,7013 L 1904,7013 1904,201 15677,201 15677,7013 8790,7013 Z"/>
 <path fill="none" stroke="rgb(179,179,179)" stroke-linejoin="round" d="M 15677,7012 L 1904,7012"/>
 <path fill="none" stroke="rgb(179,179,179)" stroke-linejoin="round" d="M 15677,6255 L 1904,6255"/>
 <path fill="none" stroke="rgb(179,179,179)" stroke-linejoin="round" d="M 15677,5498 L 1904,5498"/>
 <path fill="none" stroke="rgb(179,179,179)" stroke-linejoin="round" d="M 15677,4741 L 1904,4741"/>
 <path fill="none" stroke="rgb(179,179,179)" stroke-linejoin="round" d="M 15677,3984 L 1904,3984"/>
 <path fill="none" stroke="rgb(179,179,179)" stroke-linejoin="round" d="M 15677,3227 L 1904,3227"/>
 <path fill="none" stroke="rgb(179,179,179)" stroke-linejoin="round" d="M 15677,2470 L 1904,2470"/>
 <path fill="none" stroke="rgb(179,179,179)" stroke-linejoin="round" d="M 15677,1713 L 1904,1713"/>
 <path fill="none" stroke="rgb(179,179,179)" stroke-linejoin="round" d="M 15677,956 L 1904,956"/>
 <path fill="none" stroke="rgb(179,179,179)" stroke-linejoin="round" d="M 15677,200 L 1904,200"/>
 <path fill="none" stroke="rgb(179,179,179)" stroke-linejoin="round" d="M 1904,7162 L 1904,7012"/>
 <path fill="none" stroke="rgb(179,179,179)" stroke-linejoin="round" d="M 1904,7162 L 1904,7012"/>
 <path fill="none" stroke="rgb(179,179,179)" stroke-linejoin="round" d="M 3156,7162 L 3156,7012"/>
 <path fill="none" stroke="rgb(179,179,179)" stroke-linejoin="round" d="M 3156,7162 L 3156,7012"/>
 <path fill="none" stroke="rgb(179,179,179)" stroke-linejoin="round" d="M 4408,7162 L 4408,7012"/>
 <path fill="none" stroke="rgb(179,179,179)" stroke-linejoin="round" d="M 4408,7162 L 4408,7012"/>
 <path fill="none" stroke="rgb(179,179,179)" stroke-linejoin="round" d="M 5660,7162 L 5660,7012"/>
 <path fill="none" stroke="rgb(179,179,179)" stroke-linejoin="round" d="M 5660,7162 L 5660,7012"/>
 <path fill="none" stroke="rgb(179,179,179)" stroke-linejoin="round" d="M 6912,7162 L 6912,7012"/>
 <path fill="none" stroke="rgb(179,179,179)" stroke-linejoin="round" d="M 6912,7162 L 6912,7012"/>
 <path fill="none" stroke="rgb(179,179,179)" stroke-linejoin="round" d="M 8163,7162 L 8163,7012"/>
 <path fill="none" stroke="rgb(179,179,179)" stroke-linejoin="round" d="M 8163,7162 L 8163,7012"/>
 <path fill="none" stroke="rgb(179,179,179)" stroke-linejoin="round" d="M 9416,7162 L 9416,7012"/>
 <path fill="none" stroke="rgb(179,179,179)" stroke-linejoin="round" d="M 9416,7162 L 9416,7012"/>
 <path fill="none" stroke="rgb(179,179,179)" stroke-linejoin="round" d="M 10668,7162 L 10668,7012"/>
 <path fill="none" stroke="rgb(179,179,179)" stroke-linejoin="round" d="M 10668,7162 L 10668,7012"/>
 <path fill="none" stroke="rgb(179,179,179)" stroke-linejoin="round" d="M 11920,7162 L 11920,7012"/>
 <path fill="none" stroke="rgb(179,179,179)" stroke-linejoin="round" d="M 11920,7162 L 11920,7012"/>
 <path fill="none" stroke="rgb(179,179,179)" stroke-linejoin="round" d="M 13172,7162 L 13172,7012"/>
 <path fill="none" stroke="rgb(179,179,179)" stroke-linejoin="round" d="M 13172,7162 L 13172,7012"/>
 <path fill="none" stroke="rgb(179,179,179)" stroke-linejoin="round" d="M 14424,7162 L 14424,7012"/>
 <path fill="none" stroke="rgb(179,179,179)" stroke-linejoin="round" d="M 14424,7162 L 14424,7012"/>
 <path fill="none" stroke="rgb(179,179,179)" stroke-linejoin="round" d="M 15677,7162 L 15677,7012"/>
 <path fill="none" stroke="rgb(179,179,179)" stroke-linejoin="round" d="M 15677,7162 L 15677,7012"/>
 <path fill="none" stroke="rgb(179,179,179)" stroke-linejoin="round" d="M 1904,7012 L 15677,7012"/>
 <path fill="none" stroke="rgb(179,179,179)" stroke-linejoin="round" d="M 1754,7012 L 1904,7012"/>
 <path fill="none" stroke="rgb(179,179,179)" stroke-linejoin="round" d="M 1754,7012 L 1904,7012"/>
 <path fill="none" stroke="rgb(179,179,179)" stroke-linejoin="round" d="M 1754,6255 L 1904,6255"/>
 <path fill="none" stroke="rgb(179,179,179)" stroke-linejoin="round" d="M 1754,6255 L 1904,6255"/>
 <path fill="none" stroke="rgb(179,179,179)" stroke-linejoin="round" d="M 1754,5498 L 1904,5498"/>
 <path fill="none" stroke="rgb(179,179,179)" stroke-linejoin="round" d="M 1754,5498 L 1904,5498"/>
 <path fill="none" stroke="rgb(179,179,179)" stroke-linejoin="round" d="M 1754,4741 L 1904,4741"/>
 <path fill="none" stroke="rgb(179,179,179)" stroke-linejoin="round" d="M 1754,4741 L 1904,4741"/>
 <path fill="none" stroke="rgb(179,179,179)" stroke-linejoin="round" d="M 1754,3984 L 1904,3984"/>
 <path fill="none" stroke="rgb(179,179,179)" stroke-linejoin="round" d="M 1754,3984 L 1904,3984"/>
 <path fill="none" stroke="rgb(179,179,179)" stroke-linejoin="round" d="M 1754,3227 L 1904,3227"/>
 <path fill="none" stroke="rgb(179,179,179)" stroke-linejoin="round" d="M 1754,3227 L 1904,3227"/>
 <path fill="none" stroke="rgb(179,179,179)" stroke-linejoin="round" d="M 1754,2470 L 1904,2470"/>
 <path fill="none" stroke="rgb(179,179,179)" stroke-linejoin="round" d="M 1754,2470 L 1904,2470"/>
 <path fill="none" stroke="rgb(179,179,179)" stroke-linejoin="round" d="M 1754,1713 L 1904,1713"/>
 <path fill="none" stroke="rgb(179,179,179)" stroke-linejoin="round" d="M 1754,1713 L 1904,1713"/>
 <path fill="none" stroke="rgb(179,179,179)" stroke-linejoin="round" d="M 1754,956 L 1904,956"/>
 <path fill="none" stroke="rgb(179,179,179)" stroke-linejoin="round" d="M 1754,956 L 1904,956"/>
 <path fill="none" stroke="rgb(179,179,179)" stroke-linejoin="round" d="M 1754,200 L 1904,200"/>
 <path fill="none" stroke="rgb(179,179,179)" stroke-linejoin="round" d="M 1754,200 L 1904,200"/>
 <path fill="none" stroke="rgb(179,179,179)" stroke-linejoin="round" d="M 1904,7012 L 1904,200"/>
 <path fill="rgb(255,211,32)" stroke="none" d="M 14737,7012 L 15363,7012 15363,3190 14737,3190 14737,7012 Z"/>
 <path fill="rgb(255,66,14)" stroke="none" d="M 13485,7012 L 14111,7012 14111,4250 13485,4250 13485,7012 Z"/>
 <path fill="rgb(0,69,134)" stroke="none" d="M 12233,7012 L 12859,7012 12859,4344 12233,4344 12233,7012 Z"/>
 <path fill="rgb(255,211,32)" stroke="none" d="M 9729,7012 L 10355,7012 10355,1099 9729,1099 9729,7012 Z"/>
 <path fill="rgb(255,66,14)" stroke="none" d="M 8476,7012 L 9103,7012 9103,2821 8476,2821 8476,7012 Z"/>
 <path fill="rgb(0,69,134)" stroke="none" d="M 7225,7012 L 7851,7012 7851,4366 7225,4366 7225,7012 Z"/>
 <path fill="rgb(255,211,32)" stroke="none" d="M 4721,7012 L 5347,7012 5347,6427 4721,6427 4721,7012 Z"/>
 <path fill="rgb(255,66,14)" stroke="none" d="M 3469,7012 L 4095,7012 4095,6558 3469,6558 3469,7012 Z"/>
 <path fill="rgb(0,69,134)" stroke="none" d="M 2217,7012 L 2843,7012 2843,6730 2217,6730 2217,7012 Z"/>
 <text class="TextShape" transform="translate(1698,8397) rotate(-44.9) translate(-1698,-8397)"><tspan class="TextParagraph" font-family="Liberation Sans" font-size="353px" font-weight="400"><tspan class="TextPosition" x="1698" y="8397"><tspan fill="rgb(0,0,0)" stroke="none">C3-E2.5</tspan></tspan></tspan></text>
 <text class="TextShape" transform="translate(2950,8397) rotate(-44.9) translate(-2950,-8397)"><tspan class="TextParagraph" font-family="Liberation Sans" font-size="353px" font-weight="400"><tspan class="TextPosition" x="2950" y="8397"><tspan fill="rgb(0,0,0)" stroke="none">C3-E5.0</tspan></tspan></tspan></text>
 <text class="TextShape" transform="translate(4202,8397) rotate(-44.9) translate(-4202,-8397)"><tspan class="TextParagraph" font-family="Liberation Sans" font-size="353px" font-weight="400"><tspan class="TextPosition" x="4202" y="8397"><tspan fill="rgb(0,0,0)" stroke="none">C3-E7.5</tspan></tspan></tspan></text>
 <text class="TextShape" transform="translate(6556,8547) rotate(-44.9) translate(-6556,-8547)"><tspan class="TextParagraph" font-family="Liberation Sans" font-size="353px" font-weight="400"><tspan class="TextPosition" x="6556" y="8547"><tspan fill="rgb(0,0,0)" stroke="none">SE0-E2.5</tspan></tspan></tspan></text>
 <text class="TextShape" transform="translate(7809,8547) rotate(-44.9) translate(-7809,-8547)"><tspan class="TextParagraph" font-family="Liberation Sans" font-size="353px" font-weight="400"><tspan class="TextPosition" x="7809" y="8547"><tspan fill="rgb(0,0,0)" stroke="none">SE0-E5.0</tspan></tspan></tspan></text>
 <text class="TextShape" transform="translate(9061,8547) rotate(-44.9) translate(-9061,-8547)"><tspan class="TextParagraph" font-family="Liberation Sans" font-size="353px" font-weight="400"><tspan class="TextPosition" x="9061" y="8547"><tspan fill="rgb(0,0,0)" stroke="none">SE0-E7.5</tspan></tspan></tspan></text>
 <text class="TextShape" transform="translate(11564,8547) rotate(-44.9) translate(-11564,-8547)"><tspan class="TextParagraph" font-family="Liberation Sans" font-size="353px" font-weight="400"><tspan class="TextPosition" x="11564" y="8547"><tspan fill="rgb(0,0,0)" stroke="none">SE7-E2.5</tspan></tspan></tspan></text>
 <text class="TextShape" transform="translate(12816,8547) rotate(-44.9) translate(-12816,-8547)"><tspan class="TextParagraph" font-family="Liberation Sans" font-size="353px" font-weight="400"><tspan class="TextPosition" x="12816" y="8547"><tspan fill="rgb(0,0,0)" stroke="none">SE7-E5.0</tspan></tspan></tspan></text>
 <text class="TextShape" transform="translate(14068,8547) rotate(-44.9) translate(-14068,-8547)"><tspan class="TextParagraph" font-family="Liberation Sans" font-size="353px" font-weight="400"><tspan class="TextPosition" x="14068" y="8547"><tspan fill="rgb(0,0,0)" stroke="none">SE7-E7.5</tspan></tspan></tspan></text>
 <text class="TextShape"><tspan class="TextParagraph" font-family="Liberation Sans" font-size="352px" font-weight="400"><tspan class="TextPosition" x="1463" y="7129"><tspan fill="rgb(0,0,0)" stroke="none">0</tspan></tspan></tspan></text>
 <text class="TextShape"><tspan class="TextParagraph" font-family="Liberation Sans" font-size="352px" font-weight="400"><tspan class="TextPosition" x="320" y="6372"><tspan fill="rgb(0,0,0)" stroke="none">1000000</tspan></tspan></tspan></text>
 <text class="TextShape"><tspan class="TextParagraph" font-family="Liberation Sans" font-size="352px" font-weight="400"><tspan class="TextPosition" x="320" y="5616"><tspan fill="rgb(0,0,0)" stroke="none">2000000</tspan></tspan></tspan></text>
 <text class="TextShape"><tspan class="TextParagraph" font-family="Liberation Sans" font-size="352px" font-weight="400"><tspan class="TextPosition" x="320" y="4859"><tspan fill="rgb(0,0,0)" stroke="none">3000000</tspan></tspan></tspan></text>
 <text class="TextShape"><tspan class="TextParagraph" font-family="Liberation Sans" font-size="352px" font-weight="400"><tspan class="TextPosition" x="320" y="4102"><tspan fill="rgb(0,0,0)" stroke="none">4000000</tspan></tspan></tspan></text>
 <text class="TextShape"><tspan class="TextParagraph" font-family="Liberation Sans" font-size="352px" font-weight="400"><tspan class="TextPosition" x="320" y="3345"><tspan fill="rgb(0,0,0)" stroke="none">5000000</tspan></tspan></tspan></text>
 <text class="TextShape"><tspan class="TextParagraph" font-family="Liberation Sans" font-size="352px" font-weight="400"><tspan class="TextPosition" x="320" y="2588"><tspan fill="rgb(0,0,0)" stroke="none">6000000</tspan></tspan></tspan></text>
 <text class="TextShape"><tspan class="TextParagraph" font-family="Liberation Sans" font-size="352px" font-weight="400"><tspan class="TextPosition" x="320" y="1831"><tspan fill="rgb(0,0,0)" stroke="none">7000000</tspan></tspan></tspan></text>
 <text class="TextShape"><tspan class="TextParagraph" font-family="Liberation Sans" font-size="352px" font-weight="400"><tspan class="TextPosition" x="320" y="1074"><tspan fill="rgb(0,0,0)" stroke="none">8000000</tspan></tspan></tspan></text>
 <text class="TextShape"><tspan class="TextParagraph" font-family="Liberation Sans" font-size="352px" font-weight="400"><tspan class="TextPosition" x="320" y="318"><tspan fill="rgb(0,0,0)" stroke="none">9000000</tspan></tspan></tspan></text>
</svg>