<?xml version="1.0" encoding="UTF-8"?>
<!DOCTYPE svg PUBLIC "-//W3C//DTD SVG 1.1//EN" "http://www.w3.org/Graphics/SVG/1.1/DTD/svg11.dtd">
<svg width="160mm" height="90mm" viewBox="0 0 16000 9000" version="1.1" xmlns="http://www.w3.org/2000/svg" stroke-width="28.222" stroke-linejoin="round" xml:space="preserve">
 <path fill="rgb(255,255,255)" stroke="none" d="M 7998,8988 L 0,8988 0,24 15996,24 15996,8988 7998,8988 Z"/>
 <path fill="none" stroke="rgb(179,179,179)" stroke-linejoin="round" d="M 8790,7013 L 1904,7013 1904,202 15677,202 15677,7013 8790,7013 Z"/>
 <path fill="none" stroke="rgb(179,179,179)" stroke-linejoin="round" d="M 15677,7012 L 1904,7012"/>
 <path fill="none" stroke="rgb(179,179,179)" stroke-linejoin="round" d="M 15677,6331 L 1904,6331"/>
 <path fill="none" stroke="rgb(179,179,179)" stroke-linejoin="round" d="M 15677,5650 L 1904,5650"/>
 <path fill="none" stroke="rgb(179,179,179)" stroke-linejoin="round" d="M 15677,4969 L 1904,4969"/>
 <path fill="none" stroke="rgb(179,179,179)" stroke-linejoin="round" d="M 15677,4288 L 1904,4288"/>
 <path fill="none" stroke="rgb(179,179,179)" stroke-linejoin="round" d="M 15677,3606 L 1904,3606"/>
 <path fill="none" stroke="rgb(179,179,179)" stroke-linejoin="round" d="M 15677,2925 L 1904,2925"/>
 <path fill="none" stroke="rgb(179,179,179)" stroke-linejoin="round" d="M 15677,2244 L 1904,2244"/>
 <path fill="none" stroke="rgb(179,179,179)" stroke-linejoin="round" d="M 15677,1563 L 1904,1563"/>
 <path fill="none" stroke="rgb(179,179,179)" stroke-linejoin="round" d="M 15677,882 L 1904,882"/>
 <path fill="none" stroke="rgb(179,179,179)" stroke-linejoin="round" d="M 15677,200 L 1904,200"/>
 <path fill="none" stroke="rgb(179,179,179)" stroke-linejoin="round" d="M 1904,7162 L 1904,7012"/>
 <path fill="none" stroke="rgb(179,179,179)" stroke-linejoin="round" d="M 1904,7162 L 1904,7012"/>
 <path fill="none" stroke="rgb(179,179,179)" stroke-linejoin="round" d="M 3156,7162 L 3156,7012"/>
 <path fill="none" stroke="rgb(179,179,179)" stroke-linejoin="round" d="M 3156,7162 L 3156,7012"/>
 <path fill="none" stroke="rgb(179,179,179)" stroke-linejoin="round" d="M 4408,7162 L 4408,7012"/>
 <path fill="none" stroke="rgb(179,179,179)" stroke-linejoin="round" d="M 4408,7162 L 4408,7012"/>
 <path fill="none" stroke="rgb(179,179,179)" stroke-linejoin="round" d="M 5660,7162 L 5660,7012"/>
 <path fill="none" stroke="rgb(179,179,179)" stroke-linejoin="round" d="M 5660,7162 L 5660,7012"/>
 <path fill="none" stroke="rgb(179,179,179)" stroke-linejoin="round" d="M 6912,7162 L 6912,7012"/>
 <path fill="none" stroke="rgb(179,179,179)" stroke-linejoin="round" d="M 6912,7162 L 6912,7012"/>
 <path fill="none" stroke="rgb(179,179,179)" stroke-linejoin="round" d="M 8163,7162 L 8163,7012"/>
 <path fill="none" stroke="rgb(179,179,179)" stroke-linejoin="round" d="M 8163,7162 L 8163,7012"/>
 <path fill="none" stroke="rgb(179,179,179)" stroke-linejoin="round" d="M 9416,7162 L 9416,7012"/>
 <path fill="none" stroke="rgb(179,179,179)" stroke-linejoin="round" d="M 9416,7162 L 9416,7012"/>
 <path fill="none" stroke="rgb(179,179,179)" stroke-linejoin="round" d="M 10668,7162 L 10668,7012"/>
 <path fill="none" stroke="rgb(179,179,179)" stroke-linejoin="round" d="M 10668,7162 L 10668,7012"/>
 <path fill="none" stroke="rgb(179,179,179)" stroke-linejoin="round" d="M 11920,7162 L 11920,7012"/>
 <path fill="none" stroke="rgb(179,179,179)" stroke-linejoin="round" d="M 11920,7162 L 11920,7012"/>
 <path fill="none" stroke="rgb(179,179,179)" stroke-linejoin="round" d="M 13172,7162 L 13172,7012"/>
 <path fill="none" stroke="rgb(179,179,179)" stroke-linejoin="round" d="M 13172,7162 L 13172,7012"/>
 <path fill="none" stroke="rgb(179,179,179)" stroke-linejoin="round" d="M 14424,7162 L 14424,7012"/>
 <path fill="none" stroke="rgb(179,179,179)" stroke-linejoin="round" d="M 14424,7162 L 14424,7012"/>
 <path fill="none" stroke="rgb(179,179,179)" stroke-linejoin="round" d="M 15677,7162 L 15677,7012"/>
 <path fill="none" stroke="rgb(179,179,179)" stroke-linejoin="round" d="M 15677,7162 L 15677,7012"/>
 <path fill="none" stroke="rgb(179,179,179)" stroke-linejoin="round" d="M 1904,7012 L 15677,7012"/>
 <path fill="none" stroke="rgb(179,179,179)" stroke-linejoin="round" d="M 1754,7012 L 1904,7012"/>
 <path fill="none" stroke="rgb(179,179,179)" stroke-linejoin="round" d="M 1754,7012 L 1904,7012"/>
 <path fill="none" stroke="rgb(179,179,179)" stroke-linejoin="round" d="M 1754,6331 L 1904,6331"/>
 <path fill="none" stroke="rgb(179,179,179)" stroke-linejoin="round" d="M 1754,6331 L 1904,6331"/>
 <path fill="none" stroke="rgb(179,179,179)" stroke-linejoin="round" d="M 1754,5650 L 1904,5650"/>
 <path fill="none" stroke="rgb(179,179,179)" stroke-linejoin="round" d="M 1754,5650 L 1904,5650"/>
 <path fill="none" stroke="rgb(179,179,179)" stroke-linejoin="round" d="M 1754,4969 L 1904,4969"/>
 <path fill="none" stroke="rgb(179,179,179)" stroke-linejoin="round" d="M 1754,4969 L 1904,4969"/>
 <path fill="none" stroke="rgb(179,179,179)" stroke-linejoin="round" d="M 1754,4288 L 1904,4288"/>
 <path fill="none" stroke="rgb(179,179,179)" stroke-linejoin="round" d="M 1754,4288 L 1904,4288"/>
 <path fill="none" stroke="rgb(179,179,179)" stroke-linejoin="round" d="M 1754,3606 L 1904,3606"/>
 <path fill="none" stroke="rgb(179,179,179)" stroke-linejoin="round" d="M 1754,3606 L 1904,3606"/>
 <path fill="none" stroke="rgb(179,179,179)" stroke-linejoin="round" d="M 1754,2926 L 1904,2926"/>
 <path fill="none" stroke="rgb(179,179,179)" stroke-linejoin="round" d="M 1754,2926 L 1904,2926"/>
 <path fill="none" stroke="rgb(179,179,179)" stroke-linejoin="round" d="M 1754,2245 L 1904,2245"/>
 <path fill="none" stroke="rgb(179,179,179)" stroke-linejoin="round" d="M 1754,2245 L 1904,2245"/>
 <path fill="none" stroke="rgb(179,179,179)" stroke-linejoin="round" d="M 1754,1564 L 1904,1564"/>
 <path fill="none" stroke="rgb(179,179,179)" stroke-linejoin="round" d="M 1754,1564 L 1904,1564"/>
 <path fill="none" stroke="rgb(179,179,179)" stroke-linejoin="round" d="M 1754,883 L 1904,883"/>
 <path fill="none" stroke="rgb(179,179,179)" stroke-linejoin="round" d="M 1754,883 L 1904,883"/>
 <path fill="none" stroke="rgb(179,179,179)" stroke-linejoin="round" d="M 1754,200 L 1904,200"/>
 <path fill="none" stroke="rgb(179,179,179)" stroke-linejoin="round" d="M 1754,200 L 1904,200"/>
 <path fill="none" stroke="rgb(179,179,179)" stroke-linejoin="round" d="M 1904,7012 L 1904,200"/>
 <path fill="rgb(255,211,32)" stroke="none" d="M 14737,7012 L 15363,7012 15363,2422 14737,2422 14737,7012 Z"/>
 <path fill="rgb(255,66,14)" stroke="none" d="M 13485,7012 L 14111,7012 14111,3823 13485,3823 13485,7012 Z"/>
 <path fill="rgb(0,69,134)" stroke="none" d="M 12233,7012 L 12859,7012 12859,4675 12233,4675 12233,7012 Z"/>
 <path fill="rgb(255,211,32)" stroke="none" d="M 9729,7012 L 10355,7012 10355,812 9729,812 9729,7012 Z"/>
 <path fill="rgb(255,66,14)" stroke="none" d="M 8476,7012 L 9103,7012 9103,3090 8476,3090 8476,7012 Z"/>
 <path fill="rgb(0,69,134)" stroke="none" d="M 7225,7012 L 7851,7012 7851,5158 7225,5158 7225,7012 Z"/>
 <path fill="rgb(255,211,32)" stroke="none" d="M 4721,7012 L 5347,7012 5347,1751 4721,1751 4721,7012 Z"/>
 <path fill="rgb(255,66,14)" stroke="none" d="M 3469,7012 L 4095,7012 4095,2931 3469,2931 3469,7012 Z"/>
 <path fill="rgb(0,69,134)" stroke="none" d="M 2217,7012 L 2843,7012 2843,4476 2217,4476 2217,7012 Z"/>
 <text class="TextShape" transform="translate(1698,8397) rotate(-44.9) translate(-1698,-8397)"><tspan class="TextParagraph" font-family="Liberation Sans, sans-serif" font-size="352px" font-weight="400"><tspan class="TextPosition" x="1698" y="8397"><tspan fill="rgb(0,0,0)" stroke="none">C3-E2.5</tspan></tspan></tspan></text>
 <text class="TextShape" transform="translate(2950,8397) rotate(-44.9) translate(-2950,-8397)"><tspan class="TextParagraph" font-family="Liberation Sans, sans-serif" font-size="352px" font-weight="400"><tspan class="TextPosition" x="2950" y="8397"><tspan fill="rgb(0,0,0)" stroke="none">C3-E5.0</tspan></tspan></tspan></text>
 <text class="TextShape" transform="translate(4202,8397) rotate(-44.9) translate(-4202,-8397)"><tspan class="TextParagraph" font-family="Liberation Sans, sans-serif" font-size="352px" font-weight="400"><tspan class="TextPosition" x="4202" y="8397"><tspan fill="rgb(0,0,0)" stroke="none">C3-E7.5</tspan></tspan></tspan></text>
 <text class="TextShape" transform="translate(6556,8547) rotate(-44.9) translate(-6556,-8547)"><tspan class="TextParagraph" font-family="Liberation Sans, sans-serif" font-size="352px" font-weight="400"><tspan class="TextPosition" x="6556" y="8547"><tspan fill="rgb(0,0,0)" stroke="none">SE0-E2.5</tspan></tspan></tspan></text>
 <text class="TextShape" transform="translate(7809,8547) rotate(-44.9) translate(-7809,-8547)"><tspan class="TextParagraph" font-family="Liberation Sans, sans-serif" font-size="352px" font-weight="400"><tspan class="TextPosition" x="7809" y="8547"><tspan fill="rgb(0,0,0)" stroke="none">SE0-E5.0</tspan></tspan></tspan></text>
 <text class="TextShape" transform="translate(9061,8547) rotate(-44.9) translate(-9061,-8547)"><tspan class="TextParagraph" font-family="Liberation Sans, sans-serif" font-size="352px" font-weight="400"><tspan class="TextPosition" x="9061" y="8547"><tspan fill="rgb(0,0,0)" stroke="none">SE0-E7.5</tspan></tspan></tspan></text>
 <text class="TextShape" transform="translate(11564,8547) rotate(-44.9) translate(-11564,-8547)"><tspan class="TextParagraph" font-family="Liberation Sans, sans-serif" font-size="352px" font-weight="400"><tspan class="TextPosition" x="11564" y="8547"><tspan fill="rgb(0,0,0)" stroke="none">SE7-E2.5</tspan></tspan></tspan></text>
 <text class="TextShape" transform="translate(12816,8547) rotate(-44.9) translate(-12816,-8547)"><tspan class="TextParagraph" font-family="Liberation Sans, sans-serif" font-size="352px" font-weight="400"><tspan class="TextPosition" x="12816" y="8547"><tspan fill="rgb(0,0,0)" stroke="none">SE7-E5.0</tspan></tspan></tspan></text>
 <text class="TextShape" transform="translate(14068,8547) rotate(-44.9) translate(-14068,-8547)"><tspan class="TextParagraph" font-family="Liberation Sans, sans-serif" font-size="352px" font-weight="400"><tspan class="TextPosition" x="14068" y="8547"><tspan fill="rgb(0,0,0)" stroke="none">SE7-E7.5</tspan></tspan></tspan></text>
 <text class="TextShape"><tspan class="TextParagraph" font-family="Liberation Sans, sans-serif" font-size="352px" font-weight="400"><tspan class="TextPosition" x="1463" y="7130"><tspan fill="rgb(0,0,0)" stroke="none">0</tspan></tspan></tspan></text>
 <text class="TextShape"><tspan class="TextParagraph" font-family="Liberation Sans, sans-serif" font-size="352px" font-weight="400"><tspan class="TextPosition" x="511" y="6449"><tspan fill="rgb(0,0,0)" stroke="none">100000</tspan></tspan></tspan></text>
 <text class="TextShape"><tspan class="TextParagraph" font-family="Liberation Sans, sans-serif" font-size="352px" font-weight="400"><tspan class="TextPosition" x="511" y="5767"><tspan fill="rgb(0,0,0)" stroke="none">200000</tspan></tspan></tspan></text>
 <text class="TextShape"><tspan class="TextParagraph" font-family="Liberation Sans, sans-serif" font-size="352px" font-weight="400"><tspan class="TextPosition" x="511" y="5086"><tspan fill="rgb(0,0,0)" stroke="none">300000</tspan></tspan></tspan></text>
 <text class="TextShape"><tspan class="TextParagraph" font-family="Liberation Sans, sans-serif" font-size="352px" font-weight="400"><tspan class="TextPosition" x="511" y="4405"><tspan fill="rgb(0,0,0)" stroke="none">400000</tspan></tspan></tspan></text>
 <text class="TextShape"><tspan class="TextParagraph" font-family="Liberation Sans, sans-serif" font-size="352px" font-weight="400"><tspan class="TextPosition" x="511" y="3723"><tspan fill="rgb(0,0,0)" stroke="none">500000</tspan></tspan></tspan></text>
 <text class="TextShape"><tspan class="TextParagraph" font-family="Liberation Sans, sans-serif" font-size="352px" font-weight="400"><tspan class="TextPosition" x="511" y="3043"><tspan fill="rgb(0,0,0)" stroke="none">600000</tspan></tspan></tspan></text>
 <text class="TextShape"><tspan class="TextParagraph" font-family="Liberation Sans, sans-serif" font-size="352px" font-weight="400"><tspan class="TextPosition" x="511" y="2362"><tspan fill="rgb(0,0,0)" stroke="none">700000</tspan></tspan></tspan></text>
 <text class="TextShape"><tspan class="TextParagraph" font-family="Liberation Sans, sans-serif" font-size="352px" font-weight="400"><tspan class="TextPosition" x="511" y="1681"><tspan fill="rgb(0,0,0)" stroke="none">800000</tspan></tspan></tspan></text>
 <text class="TextShape"><tspan class="TextParagraph" font-family="Liberation Sans, sans-serif" font-size="352px" font-weight="400"><tspan class="TextPosition" x="511" y="1000"><tspan fill="rgb(0,0,0)" stroke="none">900000</tspan></tspan></tspan></text>
 <text class="TextShape"><tspan class="TextParagraph" font-family="Liberation Sans, sans-serif" font-size="352px" font-weight="400"><tspan class="TextPosition" x="320" y="318"><tspan fill="rgb(0,0,0)" stroke="none">1000000</tspan></tspan></tspan></text>
</svg>