<?xml version="1.0" encoding="UTF-8"?>
<!DOCTYPE svg PUBLIC "-//W3C//DTD SVG 1.1//EN" "http://www.w3.org/Graphics/SVG/1.1/DTD/svg11.dtd">
<svg width="160mm" height="90mm" viewBox="0 0 16000 9000" version="1.1" xmlns="http://www.w3.org/2000/svg" stroke-width="28.222" stroke-linejoin="round" xml:space="preserve">
 <path fill="rgb(255,255,255)" stroke="none" d="M 7999,8988 L 0,8988 0,24 15997,24 15997,8988 7999,8988 Z"/>
 <path fill="none" stroke="rgb(179,179,179)" stroke-linejoin="round" d="M 8791,7013 L 1904,7013 1904,202 15678,202 15678,7013 8791,7013 Z"/>
 <path fill="none" stroke="rgb(179,179,179)" stroke-linejoin="round" d="M 15678,7012 L 1904,7012"/>
 <path fill="none" stroke="rgb(179,179,179)" stroke-linejoin="round" d="M 15678,5877 L 1904,5877"/>
 <path fill="none" stroke="rgb(179,179,179)" stroke-linejoin="round" d="M 15678,4742 L 1904,4742"/>
 <path fill="none" stroke="rgb(179,179,179)" stroke-linejoin="round" d="M 15678,3606 L 1904,3606"/>
 <path fill="none" stroke="rgb(179,179,179)" stroke-linejoin="round" d="M 15678,2471 L 1904,2471"/>
 <path fill="none" stroke="rgb(179,179,179)" stroke-linejoin="round" d="M 15678,1336 L 1904,1336"/>
 <path fill="none" stroke="rgb(179,179,179)" stroke-linejoin="round" d="M 15678,200 L 1904,200"/>
 <path fill="none" stroke="rgb(179,179,179)" stroke-linejoin="round" d="M 1904,7162 L 1904,7012"/>
 <path fill="none" stroke="rgb(179,179,179)" stroke-linejoin="round" d="M 1904,7162 L 1904,7012"/>
 <path fill="none" stroke="rgb(179,179,179)" stroke-linejoin="round" d="M 3156,7162 L 3156,7012"/>
 <path fill="none" stroke="rgb(179,179,179)" stroke-linejoin="round" d="M 3156,7162 L 3156,7012"/>
 <path fill="none" stroke="rgb(179,179,179)" stroke-linejoin="round" d="M 4408,7162 L 4408,7012"/>
 <path fill="none" stroke="rgb(179,179,179)" stroke-linejoin="round" d="M 4408,7162 L 4408,7012"/>
 <path fill="none" stroke="rgb(179,179,179)" stroke-linejoin="round" d="M 5660,7162 L 5660,7012"/>
 <path fill="none" stroke="rgb(179,179,179)" stroke-linejoin="round" d="M 5660,7162 L 5660,7012"/>
 <path fill="none" stroke="rgb(179,179,179)" stroke-linejoin="round" d="M 6913,7162 L 6913,7012"/>
 <path fill="none" stroke="rgb(179,179,179)" stroke-linejoin="round" d="M 6913,7162 L 6913,7012"/>
 <path fill="none" stroke="rgb(179,179,179)" stroke-linejoin="round" d="M 8164,7162 L 8164,7012"/>
 <path fill="none" stroke="rgb(179,179,179)" stroke-linejoin="round" d="M 8164,7162 L 8164,7012"/>
 <path fill="none" stroke="rgb(179,179,179)" stroke-linejoin="round" d="M 9416,7162 L 9416,7012"/>
 <path fill="none" stroke="rgb(179,179,179)" stroke-linejoin="round" d="M 9416,7162 L 9416,7012"/>
 <path fill="none" stroke="rgb(179,179,179)" stroke-linejoin="round" d="M 10668,7162 L 10668,7012"/>
 <path fill="none" stroke="rgb(179,179,179)" stroke-linejoin="round" d="M 10668,7162 L 10668,7012"/>
 <path fill="none" stroke="rgb(179,179,179)" stroke-linejoin="round" d="M 11921,7162 L 11921,7012"/>
 <path fill="none" stroke="rgb(179,179,179)" stroke-linejoin="round" d="M 11921,7162 L 11921,7012"/>
 <path fill="none" stroke="rgb(179,179,179)" stroke-linejoin="round" d="M 13173,7162 L 13173,7012"/>
 <path fill="none" stroke="rgb(179,179,179)" stroke-linejoin="round" d="M 13173,7162 L 13173,7012"/>
 <path fill="none" stroke="rgb(179,179,179)" stroke-linejoin="round" d="M 14425,7162 L 14425,7012"/>
 <path fill="none" stroke="rgb(179,179,179)" stroke-linejoin="round" d="M 14425,7162 L 14425,7012"/>
 <path fill="none" stroke="rgb(179,179,179)" stroke-linejoin="round" d="M 15678,7162 L 15678,7012"/>
 <path fill="none" stroke="rgb(179,179,179)" stroke-linejoin="round" d="M 15678,7162 L 15678,7012"/>
 <path fill="none" stroke="rgb(179,179,179)" stroke-linejoin="round" d="M 1904,7012 L 15678,7012"/>
 <path fill="none" stroke="rgb(179,179,179)" stroke-linejoin="round" d="M 1754,7012 L 1904,7012"/>
 <path fill="none" stroke="rgb(179,179,179)" stroke-linejoin="round" d="M 1754,7012 L 1904,7012"/>
 <path fill="none" stroke="rgb(179,179,179)" stroke-linejoin="round" d="M 1754,5877 L 1904,5877"/>
 <path fill="none" stroke="rgb(179,179,179)" stroke-linejoin="round" d="M 1754,5877 L 1904,5877"/>
 <path fill="none" stroke="rgb(179,179,179)" stroke-linejoin="round" d="M 1754,4742 L 1904,4742"/>
 <path fill="none" stroke="rgb(179,179,179)" stroke-linejoin="round" d="M 1754,4742 L 1904,4742"/>
 <path fill="none" stroke="rgb(179,179,179)" stroke-linejoin="round" d="M 1754,3606 L 1904,3606"/>
 <path fill="none" stroke="rgb(179,179,179)" stroke-linejoin="round" d="M 1754,3606 L 1904,3606"/>
 <path fill="none" stroke="rgb(179,179,179)" stroke-linejoin="round" d="M 1754,2471 L 1904,2471"/>
 <path fill="none" stroke="rgb(179,179,179)" stroke-linejoin="round" d="M 1754,2471 L 1904,2471"/>
 <path fill="none" stroke="rgb(179,179,179)" stroke-linejoin="round" d="M 1754,1336 L 1904,1336"/>
 <path fill="none" stroke="rgb(179,179,179)" stroke-linejoin="round" d="M 1754,1336 L 1904,1336"/>
 <path fill="none" stroke="rgb(179,179,179)" stroke-linejoin="round" d="M 1754,200 L 1904,200"/>
 <path fill="none" stroke="rgb(179,179,179)" stroke-linejoin="round" d="M 1754,200 L 1904,200"/>
 <path fill="none" stroke="rgb(179,179,179)" stroke-linejoin="round" d="M 1904,7012 L 1904,200"/>
 <path fill="rgb(255,211,32)" stroke="none" d="M 14738,7012 L 15364,7012 15364,535 14738,535 14738,7012 Z"/>
 <path fill="rgb(255,66,14)" stroke="none" d="M 13486,7012 L 14112,7012 14112,944 13486,944 13486,7012 Z"/>
 <path fill="rgb(0,69,134)" stroke="none" d="M 12234,7012 L 12860,7012 12860,1356 12234,1356 12234,7012 Z"/>
 <path fill="rgb(255,211,32)" stroke="none" d="M 9729,7012 L 10355,7012 10355,3451 9729,3451 9729,7012 Z"/>
 <path fill="rgb(255,66,14)" stroke="none" d="M 8477,7012 L 9103,7012 9103,3494 8477,3494 8477,7012 Z"/>
 <path fill="rgb(0,69,134)" stroke="none" d="M 7226,7012 L 7852,7012 7852,1799 7226,1799 7226,7012 Z"/>
 <path fill="rgb(255,211,32)" stroke="none" d="M 4721,7012 L 5347,7012 5347,5113 4721,5113 4721,7012 Z"/>
 <path fill="rgb(255,66,14)" stroke="none" d="M 3469,7012 L 4095,7012 4095,4384 3469,4384 3469,7012 Z"/>
 <path fill="rgb(0,69,134)" stroke="none" d="M 2217,7012 L 2843,7012 2843,1297 2217,1297 2217,7012 Z"/>
 <text class="TextShape" transform="translate(1698,8397) rotate(-44.9) translate(-1698,-8397)"><tspan class="TextParagraph" font-family="Liberation Sans" font-size="352px" font-weight="400"><tspan class="TextPosition" x="1698" y="8397"><tspan fill="rgb(0,0,0)" stroke="none">C3-E2.5</tspan></tspan></tspan></text>
 <text class="TextShape" transform="translate(2950,8397) rotate(-44.9) translate(-2950,-8397)"><tspan class="TextParagraph" font-family="Liberation Sans" font-size="352px" font-weight="400"><tspan class="TextPosition" x="2950" y="8397"><tspan fill="rgb(0,0,0)" stroke="none">C3-E5.0</tspan></tspan></tspan></text>
 <text class="TextShape" transform="translate(4202,8397) rotate(-44.9) translate(-4202,-8397)"><tspan class="TextParagraph" font-family="Liberation Sans" font-size="352px" font-weight="400"><tspan class="TextPosition" x="4202" y="8397"><tspan fill="rgb(0,0,0)" stroke="none">C3-E7.5</tspan></tspan></tspan></text>
 <text class="TextShape" transform="translate(6557,8547) rotate(-44.9) translate(-6557,-8547)"><tspan class="TextParagraph" font-family="Liberation Sans" font-size="352px" font-weight="400"><tspan class="TextPosition" x="6557" y="8547"><tspan fill="rgb(0,0,0)" stroke="none">SE0-E2.5</tspan></tspan></tspan></text>
 <text class="TextShape" transform="translate(7809,8547) rotate(-44.9) translate(-7809,-8547)"><tspan class="TextParagraph" font-family="Liberation Sans" font-size="352px" font-weight="400"><tspan class="TextPosition" x="7809" y="8547"><tspan fill="rgb(0,0,0)" stroke="none">SE0-E5.0</tspan></tspan></tspan></text>
 <text class="TextShape" transform="translate(9061,8547) rotate(-44.9) translate(-9061,-8547)"><tspan class="TextParagraph" font-family="Liberation Sans" font-size="352px" font-weight="400"><tspan class="TextPosition" x="9061" y="8547"><tspan fill="rgb(0,0,0)" stroke="none">SE0-E7.5</tspan></tspan></tspan></text>
 <text class="TextShape" transform="translate(11565,8547) rotate(-44.9) translate(-11565,-8547)"><tspan class="TextParagraph" font-family="Liberation Sans" font-size="352px" font-weight="400"><tspan class="TextPosition" x="11565" y="8547"><tspan fill="rgb(0,0,0)" stroke="none">SE7-E2.5</tspan></tspan></tspan></text>
 <text class="TextShape" transform="translate(12817,8547) rotate(-44.9) translate(-12817,-8547)"><tspan class="TextParagraph" font-family="Liberation Sans" font-size="352px" font-weight="400"><tspan class="TextPosition" x="12817" y="8547"><tspan fill="rgb(0,0,0)" stroke="none">SE7-E5.0</tspan></tspan></tspan></text>
 <text class="TextShape" transform="translate(14069,8547) rotate(-44.9) translate(-14069,-8547)"><tspan class="TextParagraph" font-family="Liberation Sans" font-size="352px" font-weight="400"><tspan class="TextPosition" x="14069" y="8547"><tspan fill="rgb(0,0,0)" stroke="none">SE7-E7.5</tspan></tspan></tspan></text>
 <text class="TextShape"><tspan class="TextParagraph" font-family="Liberation Sans" font-size="352px" font-weight="400"><tspan class="TextPosition" x="1463" y="7130"><tspan fill="rgb(0,0,0)" stroke="none">0</tspan></tspan></tspan></text>
 <text class="TextShape"><tspan class="TextParagraph" font-family="Liberation Sans" font-size="352px" font-weight="400"><tspan class="TextPosition" x="320" y="5994"><tspan fill="rgb(0,0,0)" stroke="none">1000000</tspan></tspan></tspan></text>
 <text class="TextShape"><tspan class="TextParagraph" font-family="Liberation Sans" font-size="352px" font-weight="400"><tspan class="TextPosition" x="320" y="4859"><tspan fill="rgb(0,0,0)" stroke="none">2000000</tspan></tspan></tspan></text>
 <text class="TextShape"><tspan class="TextParagraph" font-family="Liberation Sans" font-size="352px" font-weight="400"><tspan class="TextPosition" x="320" y="3723"><tspan fill="rgb(0,0,0)" stroke="none">3000000</tspan></tspan></tspan></text>
 <text class="TextShape"><tspan class="TextParagraph" font-family="Liberation Sans" font-size="352px" font-weight="400"><tspan class="TextPosition" x="320" y="2588"><tspan fill="rgb(0,0,0)" stroke="none">4000000</tspan></tspan></tspan></text>
 <text class="TextShape"><tspan class="TextParagraph" font-family="Liberation Sans" font-size="352px" font-weight="400"><tspan class="TextPosition" x="320" y="1453"><tspan fill="rgb(0,0,0)" stroke="none">5000000</tspan></tspan></tspan></text>
 <text class="TextShape"><tspan class="TextParagraph" font-family="Liberation Sans" font-size="352px" font-weight="400"><tspan class="TextPosition" x="320" y="318"><tspan fill="rgb(0,0,0)" stroke="none">6000000</tspan></tspan></tspan></text>
</svg>