<?xml version="1.0" encoding="UTF-8"?>
<!DOCTYPE svg PUBLIC "-//W3C//DTD SVG 1.1//EN" "http://www.w3.org/Graphics/SVG/1.1/DTD/svg11.dtd">
<svg width="160mm" height="90mm" viewBox="0 0 16000 9000" version="1.1" xmlns="http://www.w3.org/2000/svg" stroke-width="28.222" stroke-linejoin="round" xml:space="preserve">
 <path fill="rgb(255,255,255)" stroke="none" d="M 8000,8999 L 0,8999 0,23 15999,23 15999,8999 8000,8999 Z"/>
 <path fill="none" stroke="rgb(179,179,179)" stroke-linejoin="round" d="M 8368,7022 L 1058,7022 1058,202 15679,202 15679,7022 8368,7022 Z"/>
 <path fill="none" stroke="rgb(179,179,179)" stroke-linejoin="round" d="M 15679,7021 L 1058,7021"/>
 <path fill="none" stroke="rgb(179,179,179)" stroke-linejoin="round" d="M 15679,5884 L 1058,5884"/>
 <path fill="none" stroke="rgb(179,179,179)" stroke-linejoin="round" d="M 15679,4747 L 1058,4747"/>
 <path fill="none" stroke="rgb(179,179,179)" stroke-linejoin="round" d="M 15679,3610 L 1058,3610"/>
 <path fill="none" stroke="rgb(179,179,179)" stroke-linejoin="round" d="M 15679,2474 L 1058,2474"/>
 <path fill="none" stroke="rgb(179,179,179)" stroke-linejoin="round" d="M 15679,1337 L 1058,1337"/>
 <path fill="none" stroke="rgb(179,179,179)" stroke-linejoin="round" d="M 15679,200 L 1058,200"/>
 <path fill="none" stroke="rgb(179,179,179)" stroke-linejoin="round" d="M 1058,7171 L 1058,7021"/>
 <path fill="none" stroke="rgb(179,179,179)" stroke-linejoin="round" d="M 1058,7171 L 1058,7021"/>
 <path fill="none" stroke="rgb(179,179,179)" stroke-linejoin="round" d="M 2387,7171 L 2387,7021"/>
 <path fill="none" stroke="rgb(179,179,179)" stroke-linejoin="round" d="M 2387,7171 L 2387,7021"/>
 <path fill="none" stroke="rgb(179,179,179)" stroke-linejoin="round" d="M 3716,7171 L 3716,7021"/>
 <path fill="none" stroke="rgb(179,179,179)" stroke-linejoin="round" d="M 3716,7171 L 3716,7021"/>
 <path fill="none" stroke="rgb(179,179,179)" stroke-linejoin="round" d="M 5045,7171 L 5045,7021"/>
 <path fill="none" stroke="rgb(179,179,179)" stroke-linejoin="round" d="M 5045,7171 L 5045,7021"/>
 <path fill="none" stroke="rgb(179,179,179)" stroke-linejoin="round" d="M 6375,7171 L 6375,7021"/>
 <path fill="none" stroke="rgb(179,179,179)" stroke-linejoin="round" d="M 6375,7171 L 6375,7021"/>
 <path fill="none" stroke="rgb(179,179,179)" stroke-linejoin="round" d="M 7704,7171 L 7704,7021"/>
 <path fill="none" stroke="rgb(179,179,179)" stroke-linejoin="round" d="M 7704,7171 L 7704,7021"/>
 <path fill="none" stroke="rgb(179,179,179)" stroke-linejoin="round" d="M 9032,7171 L 9032,7021"/>
 <path fill="none" stroke="rgb(179,179,179)" stroke-linejoin="round" d="M 9032,7171 L 9032,7021"/>
 <path fill="none" stroke="rgb(179,179,179)" stroke-linejoin="round" d="M 10361,7171 L 10361,7021"/>
 <path fill="none" stroke="rgb(179,179,179)" stroke-linejoin="round" d="M 10361,7171 L 10361,7021"/>
 <path fill="none" stroke="rgb(179,179,179)" stroke-linejoin="round" d="M 11691,7171 L 11691,7021"/>
 <path fill="none" stroke="rgb(179,179,179)" stroke-linejoin="round" d="M 11691,7171 L 11691,7021"/>
 <path fill="none" stroke="rgb(179,179,179)" stroke-linejoin="round" d="M 13020,7171 L 13020,7021"/>
 <path fill="none" stroke="rgb(179,179,179)" stroke-linejoin="round" d="M 13020,7171 L 13020,7021"/>
 <path fill="none" stroke="rgb(179,179,179)" stroke-linejoin="round" d="M 14349,7171 L 14349,7021"/>
 <path fill="none" stroke="rgb(179,179,179)" stroke-linejoin="round" d="M 14349,7171 L 14349,7021"/>
 <path fill="none" stroke="rgb(179,179,179)" stroke-linejoin="round" d="M 15679,7171 L 15679,7021"/>
 <path fill="none" stroke="rgb(179,179,179)" stroke-linejoin="round" d="M 15679,7171 L 15679,7021"/>
 <path fill="none" stroke="rgb(179,179,179)" stroke-linejoin="round" d="M 1058,7021 L 15679,7021"/>
 <path fill="none" stroke="rgb(179,179,179)" stroke-linejoin="round" d="M 908,7021 L 1058,7021"/>
 <path fill="none" stroke="rgb(179,179,179)" stroke-linejoin="round" d="M 908,7021 L 1058,7021"/>
 <path fill="none" stroke="rgb(179,179,179)" stroke-linejoin="round" d="M 908,5884 L 1058,5884"/>
 <path fill="none" stroke="rgb(179,179,179)" stroke-linejoin="round" d="M 908,5884 L 1058,5884"/>
 <path fill="none" stroke="rgb(179,179,179)" stroke-linejoin="round" d="M 908,4747 L 1058,4747"/>
 <path fill="none" stroke="rgb(179,179,179)" stroke-linejoin="round" d="M 908,4747 L 1058,4747"/>
 <path fill="none" stroke="rgb(179,179,179)" stroke-linejoin="round" d="M 908,3610 L 1058,3610"/>
 <path fill="none" stroke="rgb(179,179,179)" stroke-linejoin="round" d="M 908,3610 L 1058,3610"/>
 <path fill="none" stroke="rgb(179,179,179)" stroke-linejoin="round" d="M 908,2474 L 1058,2474"/>
 <path fill="none" stroke="rgb(179,179,179)" stroke-linejoin="round" d="M 908,2474 L 1058,2474"/>
 <path fill="none" stroke="rgb(179,179,179)" stroke-linejoin="round" d="M 908,1337 L 1058,1337"/>
 <path fill="none" stroke="rgb(179,179,179)" stroke-linejoin="round" d="M 908,1337 L 1058,1337"/>
 <path fill="none" stroke="rgb(179,179,179)" stroke-linejoin="round" d="M 908,200 L 1058,200"/>
 <path fill="none" stroke="rgb(179,179,179)" stroke-linejoin="round" d="M 908,200 L 1058,200"/>
 <path fill="none" stroke="rgb(179,179,179)" stroke-linejoin="round" d="M 1058,7021 L 1058,201"/>
 <path fill="rgb(255,211,32)" stroke="none" d="M 14682,7021 L 15346,7021 15346,6262 14682,6262 14682,7021 Z"/>
 <path fill="rgb(255,66,14)" stroke="none" d="M 13352,7021 L 14017,7021 14017,6292 13352,6292 13352,7021 Z"/>
 <path fill="rgb(0,69,134)" stroke="none" d="M 12023,7021 L 12688,7021 12688,6468 12023,6468 12023,7021 Z"/>
 <path fill="rgb(255,211,32)" stroke="none" d="M 9364,7021 L 10029,7021 10029,6359 9364,6359 9364,7021 Z"/>
 <path fill="rgb(255,66,14)" stroke="none" d="M 8035,7021 L 8700,7021 8700,6430 8035,6430 8035,7021 Z"/>
 <path fill="rgb(0,69,134)" stroke="none" d="M 6707,7021 L 7372,7021 7372,6578 6707,6578 6707,7021 Z"/>
 <path fill="rgb(255,211,32)" stroke="none" d="M 4048,7021 L 4713,7021 4713,1337 4048,1337 4048,7021 Z"/>
 <path fill="rgb(255,66,14)" stroke="none" d="M 2719,7021 L 3384,7021 3384,1337 2719,1337 2719,7021 Z"/>
 <path fill="rgb(0,69,134)" stroke="none" d="M 1390,7021 L 2054,7021 2054,1337 1390,1337 1390,7021 Z"/>
 <text class="TextShape" transform="translate(890,8406) rotate(-44.9) translate(-890,-8406)"><tspan class="TextParagraph" font-family="Liberation Sans" font-size="353px" font-weight="400"><tspan class="TextPosition" x="890" y="8406"><tspan fill="rgb(0,0,0)" stroke="none">C3-E2.5</tspan></tspan></tspan></text>
 <text class="TextShape" transform="translate(2219,8406) rotate(-44.9) translate(-2219,-8406)"><tspan class="TextParagraph" font-family="Liberation Sans" font-size="353px" font-weight="400"><tspan class="TextPosition" x="2219" y="8406"><tspan fill="rgb(0,0,0)" stroke="none">C3-E5.0</tspan></tspan></tspan></text>
 <text class="TextShape" transform="translate(3549,8406) rotate(-44.9) translate(-3549,-8406)"><tspan class="TextParagraph" font-family="Liberation Sans" font-size="353px" font-weight="400"><tspan class="TextPosition" x="3549" y="8406"><tspan fill="rgb(0,0,0)" stroke="none">C3-E7.5</tspan></tspan></tspan></text>
 <text class="TextShape" transform="translate(6057,8556) rotate(-44.9) translate(-6057,-8556)"><tspan class="TextParagraph" font-family="Liberation Sans" font-size="353px" font-weight="400"><tspan class="TextPosition" x="6057" y="8556"><tspan fill="rgb(0,0,0)" stroke="none">SE0-E2.5</tspan></tspan></tspan></text>
 <text class="TextShape" transform="translate(7387,8556) rotate(-44.9) translate(-7387,-8556)"><tspan class="TextParagraph" font-family="Liberation Sans" font-size="353px" font-weight="400"><tspan class="TextPosition" x="7387" y="8556"><tspan fill="rgb(0,0,0)" stroke="none">SE0-E5.0</tspan></tspan></tspan></text>
 <text class="TextShape" transform="translate(8716,8556) rotate(-44.9) translate(-8716,-8556)"><tspan class="TextParagraph" font-family="Liberation Sans" font-size="353px" font-weight="400"><tspan class="TextPosition" x="8716" y="8556"><tspan fill="rgb(0,0,0)" stroke="none">SE0-E7.5</tspan></tspan></tspan></text>
 <text class="TextShape" transform="translate(11374,8556) rotate(-44.9) translate(-11374,-8556)"><tspan class="TextParagraph" font-family="Liberation Sans" font-size="353px" font-weight="400"><tspan class="TextPosition" x="11374" y="8556"><tspan fill="rgb(0,0,0)" stroke="none">SE7-E2.5</tspan></tspan></tspan></text>
 <text class="TextShape" transform="translate(12703,8556) rotate(-44.9) translate(-12703,-8556)"><tspan class="TextParagraph" font-family="Liberation Sans" font-size="353px" font-weight="400"><tspan class="TextPosition" x="12703" y="8556"><tspan fill="rgb(0,0,0)" stroke="none">SE7-E5.0</tspan></tspan></tspan></text>
 <text class="TextShape" transform="translate(14032,8556) rotate(-44.9) translate(-14032,-8556)"><tspan class="TextParagraph" font-family="Liberation Sans" font-size="353px" font-weight="400"><tspan class="TextPosition" x="14032" y="8556"><tspan fill="rgb(0,0,0)" stroke="none">SE7-E7.5</tspan></tspan></tspan></text>
 <text class="TextShape"><tspan class="TextParagraph" font-family="Liberation Sans" font-size="352px" font-weight="400"><tspan class="TextPosition" x="617" y="7138"><tspan fill="rgb(0,0,0)" stroke="none">0</tspan></tspan></tspan></text>
 <text class="TextShape"><tspan class="TextParagraph" font-family="Liberation Sans" font-size="352px" font-weight="400"><tspan class="TextPosition" x="321" y="6001"><tspan fill="rgb(0,0,0)" stroke="none">0,2</tspan></tspan></tspan></text>
 <text class="TextShape"><tspan class="TextParagraph" font-family="Liberation Sans" font-size="352px" font-weight="400"><tspan class="TextPosition" x="321" y="4865"><tspan fill="rgb(0,0,0)" stroke="none">0,4</tspan></tspan></tspan></text>
 <text class="TextShape"><tspan class="TextParagraph" font-family="Liberation Sans" font-size="352px" font-weight="400"><tspan class="TextPosition" x="321" y="3728"><tspan fill="rgb(0,0,0)" stroke="none">0,6</tspan></tspan></tspan></text>
 <text class="TextShape"><tspan class="TextParagraph" font-family="Liberation Sans" font-size="352px" font-weight="400"><tspan class="TextPosition" x="321" y="2592"><tspan fill="rgb(0,0,0)" stroke="none">0,8</tspan></tspan></tspan></text>
 <text class="TextShape"><tspan class="TextParagraph" font-family="Liberation Sans" font-size="352px" font-weight="400"><tspan class="TextPosition" x="617" y="1455"><tspan fill="rgb(0,0,0)" stroke="none">1</tspan></tspan></tspan></text>
 <text class="TextShape"><tspan class="TextParagraph" font-family="Liberation Sans" font-size="352px" font-weight="400"><tspan class="TextPosition" x="321" y="318"><tspan fill="rgb(0,0,0)" stroke="none">1,2</tspan></tspan></tspan></text>
</svg>